<?xml version="1.0" encoding="utf-8"?>
<!-- Generator: Adobe Illustrator 25.2.3, SVG Export Plug-In . SVG Version: 6.00 Build 0)  -->
<svg version="1.1" id="Capa_1" xmlns="http://www.w3.org/2000/svg" xmlns:xlink="http://www.w3.org/1999/xlink" x="0px" y="0px"
	 viewBox="0 0 83.6 78.3" style="enable-background:new 0 0 83.6 78.3;" xml:space="preserve">
<style type="text/css">
	.st0{fill:#EAB766;}
	.st1{fill:#8ACBFF;}
	.st2{fill:#964AFF;}
	.st3{fill:#FFFFFF;}
	.st4{fill:#0AAFFF;}
</style>
<path class="st0" d="M12.7,61.1h27.7v2.3H12.7c-1.8,0-3.2-1.2-3.2-2.7V7.6C9.5,6.2,11,5,12.7,5h10.2l-0.4,1.4c0,0.1,0,0.2,0,0.3v6.1
	c0,0.8,0.8,1.5,1.8,1.5h25c1,0,1.8-0.7,1.8-1.5V6.7c0-0.1,0-0.2,0-0.3L50.7,5h10.2C62.6,5,64,6.2,64,7.6V32l-0.4-0.3h-2.4V7.6
	c0-0.2-0.2-0.4-0.5-0.4h-7v5.5c0,2.1-2,3.8-4.5,3.8h-25c-2.5,0-4.5-1.7-4.5-3.8V7.2h-7c-0.2,0-0.5,0.2-0.5,0.4v53.1
	C12.3,60.9,12.5,61.1,12.7,61.1z"/>
<path class="st1" d="M25.8,12.9h22c0.9,0,1.6-0.6,1.6-1.4V5.7c0-0.8-0.7-1.4-1.6-1.4h-6c0-2.4-2.2-4.3-5-4.3c-2.8,0-5,1.9-5,4.3
	h-5.9c-0.9,0-1.6,0.6-1.6,1.4v5.7C24.2,12.2,24.9,12.9,25.8,12.9z"/>
<path class="st2" d="M74.1,40.4v30.3c0,1.1-1.1,2.1-2.4,2.1H44.4c-1.3,0-2.4-0.9-2.4-2.1V35.8c0-1.1,1.1-2.1,2.4-2.1h20.9L74.1,40.4
	z"/>
<polygon class="st3" points="65.8,40.8 70.8,40.8 65.8,36.5 "/>
<path class="st3" d="M72.4,41.5h-8.3v-6H44.4c-0.4,0-0.6,0.2-0.6,0.5v34.2c0,0.3,0.3,0.5,0.6,0.5h27.3c0.4,0,0.6-0.2,0.6-0.5
	C72.4,70.2,72.4,41.5,72.4,41.5z"/>
<path class="st4" d="M46.6,47.7c0,0.7,0.6,1.3,1.3,1.3h20.3c0.7,0,1.3-0.6,1.3-1.3c0-0.7-0.6-1.3-1.3-1.3H47.9
	C47.2,46.4,46.6,47,46.6,47.7z"/>
<path class="st4" d="M68.2,55.1H47.9c-0.7,0-1.3,0.6-1.3,1.3c0,0.7,0.6,1.3,1.3,1.3h20.3c0.7,0,1.3-0.6,1.3-1.3
	C69.5,55.6,68.9,55.1,68.2,55.1z"/>
<path class="st4" d="M68.2,63.3H47.9c-0.7,0-1.3,0.6-1.3,1.3c0,0.7,0.6,1.3,1.3,1.3h20.3c0.7,0,1.3-0.6,1.3-1.3
	C69.5,63.9,68.9,63.3,68.2,63.3z"/>
<rect x="10.3" y="31.3" class="st0" width="30.1" height="29.8"/>
<rect x="11.8" y="19.6" class="st0" width="50" height="12.1"/>
<rect x="11.7" y="6.7" class="st0" width="10" height="16"/>
<rect x="51.8" y="6.7" class="st0" width="9.5" height="12.4"/>
<rect x="20" y="15.7" class="st0" width="41.3" height="8"/>
</svg>
