<?xml version="1.0" encoding="utf-8"?>
<!-- Generator: Adobe Illustrator 25.2.3, SVG Export Plug-In . SVG Version: 6.00 Build 0)  -->
<svg version="1.1" id="Layer_1" xmlns="http://www.w3.org/2000/svg" xmlns:xlink="http://www.w3.org/1999/xlink" x="0px" y="0px"
	 viewBox="0 0 502 502" style="enable-background:new 0 0 502 502;" xml:space="preserve">
<style type="text/css">
	.st0{fill:#D1DCEB;}
	.st1{fill:#FFFFFF;}
</style>
<g>
	<polygon class="st0" points="390.1,126.8 303.6,126.8 303.6,80.5 233.1,10 41.4,10 41.4,375.2 198.4,375.2 198.4,492 460.6,492 
		460.6,197.2 	"/>
	<polygon class="st0" points="233.1,80.5 233.1,10 303.6,80.5 	"/>
	<polygon class="st1" points="390.1,197.2 390.1,126.8 460.6,197.2 	"/>
	<g>
		<path d="M467.6,190.2l-70.5-70.5c-1.9-1.9-4.4-2.9-7.1-2.9h-76.5V80.5c0-2.7-1.1-5.2-2.9-7.1L240.2,2.9C238.3,1,235.8,0,233.1,0
			H41.4c-5.5,0-10,4.5-10,10v365.2c0,5.5,4.5,10,10,10h146.9V492c0,5.5,4.5,10,10,10h262.2c5.5,0,10-4.5,10-10V197.2
			C470.6,194.6,469.5,192.1,467.6,190.2z M436.4,187.2h-36.3v-36.3l18.2,18.2L436.4,187.2z M279.5,70.5h-36.3V34.1l18.2,18.2
			L279.5,70.5z M87.3,116.8c-5.5,0-10,4.5-10,10s4.5,10,10,10h101.1v29.9H87.3c-5.5,0-10,4.5-10,10s4.5,10,10,10h101.1v30H87.3
			c-5.5,0-10,4.5-10,10s4.5,10,10,10h101.1v30H87.3c-5.5,0-10,4.5-10,10s4.5,10,10,10h101.1v78.5h-137V20h171.7v60.5
			c0,5.5,4.5,10,10,10h60.5v26.3H87.3z M380.1,136.8v60.5c0,5.5,4.5,10,10,10h60.5V482H208.4V136.8H380.1z"/>
		<path d="M244.2,253.5h125.4c5.5,0,10-4.5,10-10s-4.5-10-10-10H244.2c-5.5,0-10,4.5-10,10S238.7,253.5,244.2,253.5z"/>
		<path d="M414.7,283.5H244.2c-5.5,0-10,4.5-10,10s4.5,10,10,10h170.5c5.5,0,10-4.5,10-10S420.2,283.5,414.7,283.5z"/>
		<path d="M414.7,333.5H244.2c-5.5,0-10,4.5-10,10s4.5,10,10,10h170.5c5.5,0,10-4.5,10-10S420.2,333.5,414.7,333.5z"/>
		<path d="M414.7,383.5H244.2c-5.5,0-10,4.5-10,10s4.5,10,10,10h170.5c5.5,0,10-4.5,10-10S420.2,383.5,414.7,383.5z"/>
		<path d="M414.7,233.5H398c-5.5,0-10,4.5-10,10s4.5,10,10,10h16.7c5.5,0,10-4.5,10-10S420.2,233.5,414.7,233.5z"/>
	</g>
</g>
</svg>
