<?xml version="1.0" encoding="utf-8"?>
<!-- Generator: Adobe Illustrator 25.2.3, SVG Export Plug-In . SVG Version: 6.00 Build 0)  -->
<svg version="1.1" id="Capa_1" xmlns="http://www.w3.org/2000/svg" xmlns:xlink="http://www.w3.org/1999/xlink" x="0px" y="0px"
	 viewBox="0 0 214.9 214.9" style="enable-background:new 0 0 214.9 214.9;" xml:space="preserve">
<style type="text/css">
	.st0{fill:#E90013;}
</style>
<path class="st0" d="M176.7,129c-10.2,0-19.8,4-27,11.2c-3.4,3.4-6,7.3-7.9,11.5l-17.1-17.1c13.4-13.4,36.2-36.2,54.4-54.4
	c27.6-27.6,1.4-70.7,1.4-70.7l-73.2,103.2L34.3,9.5c0,0-26.2,43.1,1.4,70.7c18.2,18.2,41,41,54.4,54.4l-17.1,17.1
	c-1.8-4.2-4.5-8-7.9-11.4C58,133,48.4,129,38.2,129l0,0h0c-10.2,0-19.8,4-27,11.2c-14.9,14.9-14.9,39.1,0,54
	c7.2,7.2,16.8,11.2,27,11.2s19.8-4,27-11.2c0.4-0.4,0.8-0.8,1.2-1.3l41-41l41,41c0.4,0.4,0.8,0.9,1.2,1.3c7.2,7.2,16.8,11.2,27,11.2
	s19.8-4,27-11.2c14.9-14.9,14.9-39.1,0-54C196.5,133,186.9,129,176.7,129z M52.7,181.7c-4,4-9.2,6-14.5,6s-10.5-2-14.5-6
	c-8-8-8-21,0-29c4-4,9.2-6,14.5-6c5.2,0,10.5,2,14.5,6C60.7,160.8,60.7,173.7,52.7,181.7z M191.2,181.7c-4,4-9.2,6-14.5,6
	s-10.5-2-14.5-6c-8-8-8-21,0-29c4-4,9.2-6,14.5-6c5.2,0,10.5,2,14.5,6C199.2,160.8,199.2,173.7,191.2,181.7z"/>
</svg>
