<svg width="69" height="85" xmlns="http://www.w3.org/2000/svg" xmlns:xlink="http://www.w3.org/1999/xlink" overflow="hidden"><defs><clipPath id="clip0"><rect x="480" y="352" width="69" height="85"/></clipPath></defs><g clip-path="url(#clip0)" transform="translate(-480 -352)"><path d="M493.325 383.431C492.837 384.456 495.765 386.871 499.865 388.824 503.965 390.777 507.685 391.53 508.173 390.505L495.408 417.299C494.92 418.324 491.2 417.572 487.1 415.618 483 413.665 480.072 411.251 480.56 410.226Z" fill="#00B0F0" fill-rule="evenodd"/><path d="M493.325 383.431C493.814 382.406 497.533 383.159 501.633 385.112 505.734 387.065 508.661 389.48 508.173 390.505 507.685 391.53 503.965 390.777 499.865 388.824 495.765 386.871 492.837 384.456 493.325 383.431Z" fill="#66D0F6" fill-rule="evenodd"/><path d="M488 371.5C488 360.73 496.73 352 507.5 352 518.27 352 527 360.73 527 371.5 527 382.27 518.27 391 507.5 391 496.73 391 488 382.27 488 371.5Z" fill="#00B0F0" fill-rule="evenodd"/><text fill="#00B0F0" font-family="Courier New,Courier New_MSFontService,sans-serif" font-weight="400" font-size="24" transform="translate(505.452 414)">7F</text></g></svg>