<svg width="76" height="78" xmlns="http://www.w3.org/2000/svg" xmlns:xlink="http://www.w3.org/1999/xlink" overflow="hidden"><defs><clipPath id="clip0"><rect x="944" y="189" width="76" height="78"/></clipPath></defs><g clip-path="url(#clip0)" transform="translate(-944 -189)"><rect x="946.5" y="190.5" width="72" height="76" stroke="#2F528F" stroke-width="1.33333" stroke-miterlimit="8" fill="#7030A0"/><path d="M955.5 200.833C955.5 197.888 957.888 195.5 960.833 195.5L1004.17 195.5C1007.11 195.5 1009.5 197.888 1009.5 200.833L1009.5 222.167C1009.5 225.112 1007.11 227.5 1004.17 227.5L960.833 227.5C957.888 227.5 955.5 225.112 955.5 222.167Z" stroke="#2F528F" stroke-width="1.33333" stroke-miterlimit="8" fill="#FFFFFF" fill-rule="evenodd"/><path d="M963.5 203.5 1001.3 203.5" stroke="#000000" stroke-width="0.666667" stroke-miterlimit="8" fill="none" fill-rule="evenodd"/><path d="M964.5 212.5 1002.3 212.5" stroke="#000000" stroke-width="0.666667" stroke-miterlimit="8" fill="none" fill-rule="evenodd"/><path d="M964.5 221.5 1002.3 221.5" stroke="#000000" stroke-width="0.666667" stroke-miterlimit="8" fill="none" fill-rule="evenodd"/><rect x="955.5" y="233.5" width="54" height="22" stroke="#2F528F" stroke-width="1.33333" stroke-miterlimit="8" fill="#FFFFFF"/><rect x="964.5" y="236.5" width="9" height="16" stroke="#2F528F" stroke-width="1.33333" stroke-miterlimit="8" fill="#7030A0"/></g></svg>