<?xml version="1.0" encoding="utf-8"?>
<!-- Generator: Adobe Illustrator 25.2.3, SVG Export Plug-In . SVG Version: 6.00 Build 0)  -->
<svg version="1.1" id="图层_1" xmlns="http://www.w3.org/2000/svg" xmlns:xlink="http://www.w3.org/1999/xlink" x="0px" y="0px"
	 viewBox="0 0 144 158" style="enable-background:new 0 0 144 158;" xml:space="preserve">
<style type="text/css">
	.st0{clip-path:url(#SVGID_2_);}
	.st1{fill-rule:evenodd;clip-rule:evenodd;fill:#FF001F;}
</style>
<g>
	<defs>
		<rect id="SVGID_1_" y="0" width="144" height="158"/>
	</defs>
	<clipPath id="SVGID_2_">
		<use xlink:href="#SVGID_1_"  style="overflow:visible;"/>
	</clipPath>
	<g transform="translate(-3316 -1250)" class="st0">
		<path class="st1" d="M3330.9,1404.8c14,6.6,31.9,2.6,39.9-8.9c1.1-1.7,1.9-3.5,2.7-5.3l10.5-20.6l4.1-7.9l4.1,7.9l10.5,20.6
			c0.8,1.8,1.7,3.6,2.7,5.3c8,11.6,25.9,15.6,39.9,8.9s18.8-21.4,10.8-33c-8.1-11.6-25.9-15.5-39.9-8.9c-2.6,1.3-5,2.8-7,4.7
			l-3.8-25.5l-4-6.2l0.6-1.2l31.1-61.4l-3.5-23.3l-36.2,56.7l-5.4,8.4l-5.4-8.4l-36.2-56.7l-3.5,23.3l31.1,61.4l0.6,1.2l-4,6.2
			l-3.8,25.5c-2-1.9-4.4-3.5-7-4.7c-13.9-6.7-31.9-2.8-40,8.7s-3.4,26.3,10.5,33C3330.6,1404.7,3330.8,1404.7,3330.9,1404.8z
			 M3423.2,1373.1c7-3.3,15.9-1.3,20,4.5c4,5.8,1.6,13.2-5.4,16.5c-7,3.3-15.9,1.3-20-4.5
			C3413.9,1383.8,3416.3,1376.5,3423.2,1373.1z M3388.1,1337.5c4.1,0,7.3,2.7,7.3,6s-3.3,6.1-7.3,6.1c-4,0-7.3-2.7-7.3-6.1
			S3384,1337.5,3388.1,1337.5z M3333,1377.6c4-5.8,12.9-7.8,19.9-4.5c0,0,0.1,0,0.1,0c6.9,3.4,9.3,10.7,5.4,16.5
			c-4,5.8-12.9,7.9-19.9,4.6c-7-3.3-9.5-10.6-5.5-16.5C3332.9,1377.7,3332.9,1377.6,3333,1377.6z"/>
	</g>
</g>
</svg>
