<svg width="254" height="266" xmlns="http://www.w3.org/2000/svg" xmlns:xlink="http://www.w3.org/1999/xlink" xml:space="preserve" overflow="hidden"><defs><clipPath id="clip0"><rect x="830" y="1185" width="254" height="266"/></clipPath></defs><g clip-path="url(#clip0)" transform="translate(-830 -1185)"><rect x="832.5" y="1187.5" width="249" height="261" stroke="#2F528F" stroke-width="4.58333" stroke-miterlimit="8" fill="#7030A0"/><path d="M866.5 1224.67C866.5 1214.63 874.634 1206.5 884.667 1206.5L1030.33 1206.5C1040.37 1206.5 1048.5 1214.63 1048.5 1224.67L1048.5 1297.33C1048.5 1307.37 1040.37 1315.5 1030.33 1315.5L884.667 1315.5C874.634 1315.5 866.5 1307.37 866.5 1297.33Z" stroke="#2F528F" stroke-width="4.58333" stroke-miterlimit="8" fill="#FFFFFF" fill-rule="evenodd"/><path d="M892 1232 1021.92 1232" stroke="#000000" stroke-width="2.29167" stroke-miterlimit="8" fill="none" fill-rule="evenodd"/><path d="M895 1263 1024.92 1263" stroke="#000000" stroke-width="2.29167" stroke-miterlimit="8" fill="none" fill-rule="evenodd"/><path d="M895 1295 1024.92 1295" stroke="#000000" stroke-width="2.29167" stroke-miterlimit="8" fill="none" fill-rule="evenodd"/><rect x="866.5" y="1335.5" width="182" height="77" stroke="#2F528F" stroke-width="4.58333" stroke-miterlimit="8" fill="#FFFFFF"/><rect x="895.5" y="1347.5" width="31.9999" height="52.9999" stroke="#2F528F" stroke-width="4.58333" stroke-miterlimit="8" fill="#7030A0"/><path d="M1044.46 1296.22C1030.76 1263.6 971.063 1255.17 899.323 1275.72L907.449 1295.06 851.563 1270.35 874.948 1217.69 883.073 1237.03C954.812 1216.49 1014.51 1224.92 1028.21 1257.54Z" fill="#FFC000" fill-rule="evenodd"/><path d="M903.536 1394.07C972.875 1364.93 1024.79 1318.04 1030.57 1279.3 1069.66 1307.62 1038.29 1367.26 960.505 1412.51 947.631 1419.99 933.93 1426.8 919.787 1432.75Z" fill="#CD9A00" fill-rule="evenodd"/><path d="M1044.46 1296.22C1030.76 1263.6 971.063 1255.17 899.323 1275.72L907.449 1295.06 851.563 1270.35 874.948 1217.69 883.073 1237.03C954.812 1216.49 1014.51 1224.92 1028.21 1257.54L1044.46 1296.22C1061.06 1335.72 1005.24 1396.85 919.787 1432.75L903.536 1394.07C972.875 1364.93 1024.79 1318.04 1030.57 1279.3" stroke="#2F528F" stroke-width="4.58333" stroke-miterlimit="8" fill="none" fill-rule="evenodd"/></g></svg>