<svg width="214" height="231" xmlns="http://www.w3.org/2000/svg" xmlns:xlink="http://www.w3.org/1999/xlink" xml:space="preserve" overflow="hidden"><defs><clipPath id="clip0"><rect x="2187" y="1218" width="214" height="231"/></clipPath></defs><g clip-path="url(#clip0)" transform="translate(-2187 -1218)"><path d="M2190.75 1278.59 2225.62 1223.79 2231.32 1246.64C2331.56 1232.24 2400.16 1257 2384.56 1301.92 2383.9 1303.8 2383.11 1305.69 2382.17 1307.6 2356.77 1289.24 2304.27 1283.5 2242.72 1292.34L2248.41 1315.19Z" fill="#FFC000" fill-rule="evenodd"/><path d="M2397.25 1328.11C2407.2 1368.01 2333.43 1420.77 2232.47 1445.94L2221.08 1400.24C2322.03 1375.07 2395.8 1322.32 2385.86 1282.41Z" fill="#CD9A00" fill-rule="evenodd"/><path d="M2382.17 1307.6C2356.77 1289.24 2304.27 1283.5 2242.72 1292.34L2248.41 1315.19 2190.75 1278.59 2225.62 1223.79 2231.32 1246.64C2314.08 1234.75 2377.64 1249.47 2385.86 1282.41L2397.25 1328.11C2407.2 1368.01 2333.43 1420.77 2232.47 1445.94L2221.08 1400.24C2322.03 1375.07 2395.8 1322.32 2385.86 1282.41" stroke="#2F528F" stroke-width="4.58333" stroke-miterlimit="8" fill="none" fill-rule="evenodd"/></g></svg>