<svg width="234" height="234" xmlns="http://www.w3.org/2000/svg" xmlns:xlink="http://www.w3.org/1999/xlink" xml:space="preserve" overflow="hidden"><defs><clipPath id="clip0"><rect x="2207" y="1681" width="234" height="234"/></clipPath></defs><g clip-path="url(#clip0)" transform="translate(-2207 -1681)"><path d="M2239.99 1845.16 2231.4 1870.96 2250.98 1890.57 2276.75 1881.97C2283.59 1885.8 2290.86 1888.8 2298.4 1890.92L2310.43 1915 2337.92 1915 2349.94 1890.92C2357.4 1888.87 2364.56 1885.86 2371.25 1881.97L2397.02 1890.57 2416.6 1870.96 2408.01 1845.16C2411.84 1838.32 2414.83 1831.04 2416.95 1823.49L2441 1811.45 2441 1783.92 2416.6 1772.23C2414.55 1764.76 2411.55 1757.59 2407.67 1750.9L2416.26 1725.09 2396.67 1705.48 2370.9 1714.09C2364.07 1710.26 2356.8 1707.25 2349.26 1705.14L2337.57 1681 2310.08 1681 2298.06 1705.08C2290.6 1707.13 2283.44 1710.14 2276.75 1714.03L2250.98 1705.43 2231.4 1725.04 2239.99 1750.84C2236.16 1757.68 2233.17 1764.96 2231.05 1772.51L2207 1784.21 2207 1811.73 2231.05 1823.77C2233.1 1831.26 2236.1 1838.45 2239.99 1845.16ZM2213.87 1788.56 2234.06 1778.74 2236.86 1777.36 2237.68 1774.35C2239.66 1767.32 2242.45 1760.55 2246.01 1754.17L2247.46 1751.54 2246.51 1748.68 2239.26 1726.91 2252.84 1713.3 2274.58 1720.56 2277.52 1721.54 2280.2 1719.99C2286.37 1716.4 2292.98 1713.63 2299.87 1711.73L2302.83 1710.92 2304.21 1708.17 2314.34 1687.88 2333.28 1687.88 2343.07 1708.11 2344.44 1710.92 2347.45 1711.74C2354.47 1713.72 2361.24 1716.52 2367.6 1720.08L2370.24 1721.53 2373.09 1720.58 2394.83 1713.32 2408.41 1726.92 2401.16 1748.69 2400.18 1751.64 2401.74 1754.32C2405.32 1760.5 2408.09 1767.12 2409.98 1774.02L2410.81 1777.05 2413.65 1778.41 2434.13 1788.24 2434.13 1807.19 2413.87 1817.33 2411.12 1818.71 2410.32 1821.67C2408.34 1828.7 2405.55 1835.47 2401.99 1841.85L2400.54 1844.48 2401.49 1847.34 2408.74 1869.11 2395.16 1882.72 2373.42 1875.46 2370.48 1874.48 2367.8 1876.03C2361.63 1879.62 2355.01 1882.4 2348.13 1884.29L2345.17 1885.1 2343.79 1887.85 2333.66 1908.15 2314.68 1908.15 2304.55 1887.85 2303.18 1885.1 2300.21 1884.29C2293.2 1882.31 2286.44 1879.51 2280.07 1875.95L2277.44 1874.5 2274.58 1875.45 2252.84 1882.71 2239.26 1869.11 2246.52 1847.34 2247.49 1844.4 2245.94 1841.71C2242.35 1835.53 2239.58 1828.91 2237.69 1822.02L2236.88 1819.05 2234.13 1817.67 2213.87 1807.53Z" fill="#00B0F0" fill-rule="evenodd"/><path d="M2323.5 1839C2346.42 1839 2365 1820.42 2365 1797.5 2365 1774.58 2346.42 1756 2323.5 1756 2300.58 1756 2282 1774.58 2282 1797.5 2282.07 1820.39 2300.61 1838.93 2323.5 1839ZM2323.5 1762.89C2342.6 1762.89 2358.08 1778.38 2358.08 1797.48 2358.08 1816.58 2342.6 1832.06 2323.5 1832.06 2304.4 1832.06 2288.92 1816.58 2288.92 1797.48 2288.94 1778.39 2304.41 1762.92 2323.5 1762.89Z" fill="#00B0F0" fill-rule="evenodd"/></g></svg>