<svg width="234" height="234" xmlns="http://www.w3.org/2000/svg" xmlns:xlink="http://www.w3.org/1999/xlink" xml:space="preserve" overflow="hidden"><defs><clipPath id="clip0"><rect x="2548" y="1673" width="234" height="234"/></clipPath></defs><g clip-path="url(#clip0)" transform="translate(-2548 -1673)"><path d="M2580.99 1837.16 2572.4 1862.96 2591.98 1882.57 2617.75 1873.97C2624.59 1877.8 2631.86 1880.8 2639.4 1882.92L2651.43 1907 2678.92 1907 2690.94 1882.92C2698.4 1880.87 2705.56 1877.86 2712.25 1873.97L2738.02 1882.57 2757.6 1862.96 2749.01 1837.16C2752.84 1830.32 2755.83 1823.04 2757.95 1815.49L2782 1803.45 2782 1775.92 2757.6 1764.23C2755.55 1756.76 2752.55 1749.59 2748.67 1742.9L2757.26 1717.09 2737.67 1697.48 2711.9 1706.09C2705.07 1702.26 2697.8 1699.25 2690.26 1697.14L2678.57 1673 2651.08 1673 2639.06 1697.08C2631.6 1699.13 2624.44 1702.14 2617.75 1706.03L2591.98 1697.43 2572.4 1717.04 2580.99 1742.84C2577.16 1749.68 2574.17 1756.96 2572.05 1764.51L2548 1776.21 2548 1803.73 2572.05 1815.77C2574.1 1823.26 2577.1 1830.45 2580.99 1837.16ZM2554.87 1780.56 2575.06 1770.74 2577.86 1769.36 2578.68 1766.35C2580.66 1759.32 2583.45 1752.55 2587.01 1746.17L2588.46 1743.54 2587.51 1740.68 2580.26 1718.91 2593.84 1705.3 2615.58 1712.56 2618.52 1713.54 2621.2 1711.99C2627.37 1708.4 2633.98 1705.63 2640.87 1703.73L2643.83 1702.92 2645.21 1700.17 2655.34 1679.88 2674.28 1679.88 2684.07 1700.11 2685.44 1702.92 2688.45 1703.74C2695.47 1705.72 2702.24 1708.52 2708.6 1712.08L2711.24 1713.53 2714.09 1712.58 2735.83 1705.32 2749.41 1718.92 2742.16 1740.7 2741.18 1743.64 2742.74 1746.32C2746.32 1752.5 2749.09 1759.12 2750.98 1766.02L2751.81 1769.05 2754.65 1770.41 2775.13 1780.24 2775.13 1799.19 2754.87 1809.33 2752.12 1810.71 2751.32 1813.67C2749.34 1820.7 2746.55 1827.47 2742.99 1833.85L2741.54 1836.48 2742.49 1839.34 2749.74 1861.11 2736.16 1874.72 2714.42 1867.46 2711.48 1866.48 2708.8 1868.03C2702.63 1871.62 2696.01 1874.4 2689.13 1876.29L2686.17 1877.1 2684.79 1879.85 2674.66 1900.15 2655.68 1900.15 2645.55 1879.85 2644.18 1877.1 2641.21 1876.29C2634.2 1874.31 2627.44 1871.51 2621.07 1867.95L2618.44 1866.5 2615.58 1867.45 2593.84 1874.71 2580.26 1861.11 2587.52 1839.34 2588.49 1836.4 2586.94 1833.71C2583.35 1827.53 2580.58 1820.91 2578.69 1814.02L2577.88 1811.05 2575.13 1809.67 2554.87 1799.53Z" fill-rule="evenodd"/><path d="M2664.5 1832C2687.42 1832 2706 1813.42 2706 1790.5 2706 1767.58 2687.42 1749 2664.5 1749 2641.58 1749 2623 1767.58 2623 1790.5 2623.07 1813.39 2641.61 1831.93 2664.5 1832ZM2664.5 1755.89C2683.6 1755.89 2699.08 1771.38 2699.08 1790.48 2699.08 1809.58 2683.6 1825.06 2664.5 1825.06 2645.4 1825.06 2629.92 1809.58 2629.92 1790.48 2629.94 1771.39 2645.41 1755.92 2664.5 1755.89Z" fill-rule="evenodd"/></g></svg>