<svg width="214" height="232" xmlns="http://www.w3.org/2000/svg" xmlns:xlink="http://www.w3.org/1999/xlink" xml:space="preserve" overflow="hidden"><defs><clipPath id="clip0"><rect x="2829" y="1228" width="214" height="232"/></clipPath></defs><g clip-path="url(#clip0)" transform="translate(-2829 -1228)"><path d="M172.37 0 217.159 47.1518 193.583 47.1518C183.311 148.009 142.733 208.659 102.949 182.618 101.274 181.521 99.6139 180.277 97.9727 178.887 121.888 158.63 140.128 109.044 146.431 47.1518L122.855 47.1518Z" fill="#FFC000" fill-rule="evenodd" transform="matrix(0.240828 -0.970568 -0.970568 -0.240828 2998.17 1456.49)"/><path d="M74.397 188.607C33.3087 188.607 0 104.165 0 2.7948e-14L47.1517 0C47.1517 104.165 80.4604 188.607 121.549 188.607Z" fill="#CD9A00" fill-rule="evenodd" transform="matrix(0.240828 -0.970568 -0.970568 -0.240828 2998.17 1456.49)"/><path d="M97.9727 178.887C121.888 158.63 140.128 109.044 146.431 47.152L122.855 47.1518 172.37 0 217.159 47.1518 193.583 47.1518C185.102 130.425 155.473 188.607 121.549 188.607L74.397 188.607C33.3087 188.607 0 104.165 0 2.7948e-14L47.1517 0C47.1517 104.165 80.4604 188.607 121.549 188.607" stroke="#2F528F" stroke-width="4.58333" stroke-miterlimit="8" fill="none" fill-rule="evenodd" transform="matrix(0.240828 -0.970568 -0.970568 -0.240828 2998.17 1456.49)"/></g></svg>